{"title":"Broken Arrow-720p MP4 AAC x264 BRRip 1996-CC","uid":8041411,"size":3199385273,"categoryP":"video","categoryS":"hd___movies","magnet":"?xt=urn:btih:0452721d8953c028f2c9870999a2938d14b3dd5a&amp;dn=Broken+Arrow-720p+MP4+AAC+x264+BRRip+1996-CC&amp;tr=udp%3A%2F%2Ftracker.openbittorrent.com%3A80&amp;tr=udp%3A%2F%2Fopen.demonii.com%3A1337&amp;tr=udp%3A%2F%2Ftracker.coppersurfer.tk%3A6969&amp;tr=udp%3A%2F%2Fexodus.desync.com%3A6969","seeders":1,"leechers":0,"uploader":"Caveman44","files":31,"time":1358639166,"description":"Source: Broken.Arrow.1996.720p.BluRay.DTS.x264-CDDHD Thanks!\n\nSubs: Arabic, Croatian, Danish, Dutch, English, Finnish, Indonesian, Norwegian, Romanian, Slovenian, Spanish and Swedish.\n\nSample and Screens included.\n\nGeneral\nComplete name                            : Broken Arrow-720p MP4 AAC x264 BRRip 1996-CC.mp4\nFormat                                   : MPEG-4\nFormat profile                           : Base Media\nCodec ID                                 : isom\nFile size                                : 2.95 GiB\nDuration                                 : 1h 48mn\nOverall bit rate mode                    : Variable\nOverall bit rate                         : 3 895 Kbps\nEncoded date                             : UTC 2013-01-12 12:35:38\n\nVideo\nID                                       : 1\nFormat                                   : AVC\nFormat/Info                              : Advanced Video Codec\nFormat profile                           : &lt;a class=&quot;__cf_email__&quot; href=&quot;/cdn-cgi/l/email-protection&quot; data-cfemail=&quot;dc94b5bbb49c90e8f2ed&quot;&gt;[email&amp;#160;protected]&lt;/a&gt;&lt;script cf-hash='f9e31' type=&quot;text/javascript&quot;&gt;\n/* &lt;![CDATA[ */!function(){try{var t=&quot;currentScript&quot;in document?document.currentScript:function(){for(var t=document.getElementsByTagName(&quot;script&quot;),e=t.length;e--;)if(t[e].getAttribute(&quot;cf-hash&quot;))return t[e]}();if(t&amp;&amp;t.previousSibling){var e,r,n,i,c=t.previousSibling,a=c.getAttribute(&quot;data-cfemail&quot;);if(a){for(e=&quot;&quot;,r=parseInt(a.substr(0,2),16),n=2;a.length-n;n+=2)i=parseInt(a.substr(n,2),16)^r,e+=String.fromCharCode(i);e=document.createTextNode(e),c.parentNode.replaceChild(e,c)}}}catch(u){}}();/* ]]&gt; */&lt;/script&gt;\nFormat settings, CABAC                   : Yes\nFormat settings, ReFrames                : 5 frames\nCodec ID                                 : avc1\nCodec ID/Info                            : Advanced Video Coding\nDuration                                 : 1h 48mn\nBit rate                                 : 3 573 Kbps\nMaximum bit rate                         : 19.8 Mbps\nWidth                                    : 1 280 pixels\nHeight                                   : 544 pixels\nDisplay aspect ratio                     : 2.35:1\nFrame rate mode                          : Variable\nFrame rate                               : 23.976 fps\nMinimum frame rate                       : 19.048 fps\nMaximum frame rate                       : 24.390 fps\nColor space                              : YUV\nChroma subsampling                       : 4:2:0\nBit depth                                : 8 bits\nScan type                                : Progressive\nBits/(Pixel*Frame)                       : 0.214\nStream size                              : 2.65 GiB (90%)\nWriting library                          : x264 core 112\n\nAudio\nID                                       : 2\nFormat                                   : AAC\nFormat/Info                              : Advanced Audio Codec\nFormat profile                           : LC\nCodec ID                                 : 40\nDuration                                 : 1h 48mn\nBit rate mode                            : Variable\nBit rate                                 : 384 Kbps\nMaximum bit rate                         : 629 Kbps\nChannel(s)                               : 6 channels\nChannel positions                        : Front: L C R, Side: L R, LFE\nSampling rate                            : 48.0 KHz\nCompression mode                         : Lossy\nDelay relative to video                  : 83ms\nStream size                              : 298 MiB (10%)\nLanguage                                 : English\n\nEnjoy...\n\nRequested by majmi\n\nComing soon: Apocalypse Hitler, Twilight Samurai, The Big Heat, Frequency, Superman Returns and more..","torrent":{"xt":"urn:btih:0452721d8953c028f2c9870999a2938d14b3dd5a","amp;dn":"Broken+Arrow-720p+MP4+AAC+x264+BRRip+1996-CC","amp;tr":["udp%3A%2F%2Ftracker.openbittorrent.com%3A80","udp%3A%2F%2Fopen.demonii.com%3A1337","udp%3A%2F%2Ftracker.coppersurfer.tk%3A6969","udp%3A%2F%2Fexodus.desync.com%3A6969"],"infoHash":"0452721d8953c028f2c9870999a2938d14b3dd5a","infoHashBuffer":{"type":"Buffer","data":[4,82,114,29,137,83,192,40,242,201,135,9,153,162,147,141,20,179,221,90]},"announce":[],"urlList":[]}}